<svg width="600" height="526" viewBox="0 0 600 526" fill="none" xmlns="http://www.w3.org/2000/svg">
<g clip-path="url(#clip0)">
<path d="M340.2 449.7H10.4C4.89999 449.7 0.399994 454.2 0.399994 459.7V515.5C0.399994 521 4.89999 525.5 10.4 525.5H340.2C345.7 525.5 350.2 521 350.2 515.5V459.7C350.2 454.2 345.7 449.7 340.2 449.7Z" fill="black" stroke="black" stroke-miterlimit="10"/>
<path d="M539.7 300.7H10.4C4.89999 300.7 0.399994 305.2 0.399994 310.7V366.5C0.399994 372 4.89999 376.5 10.4 376.5H539.7C545.2 376.5 549.7 372 549.7 366.5V310.7C549.7 305.2 545.2 300.7 539.7 300.7Z" fill="black" stroke="black" stroke-miterlimit="10"/>
<path d="M440 149.7H10.4C4.89999 149.7 0.399994 154.2 0.399994 159.7V215.5C0.399994 221 4.89999 225.5 10.4 225.5H440C445.5 225.5 450 221 450 215.5V159.7C450 154.2 445.5 149.7 440 149.7Z" fill="black" stroke="black" stroke-miterlimit="10"/>
<path d="M590 -1.29999H10.4C4.89999 -1.29999 0.399994 3.20001 0.399994 8.70001V64.5C0.399994 70 4.89999 74.5 10.4 74.5H590C595.5 74.5 600 70 600 64.5V8.70001C600 3.20001 595.5 -1.29999 590 -1.29999Z" fill="black" stroke="black" stroke-miterlimit="10"/>
</g>
<defs>
<clipPath id="clip0">
<rect width="600" height="526" fill="white" transform="matrix(1 0 0 -1 0 526)"/>
</clipPath>
</defs>
</svg>
