<svg width="600" height="526" viewBox="0 0 600 526" fill="none" xmlns="http://www.w3.org/2000/svg"><g clip-path="url(#clip0)" fill="#000" stroke="#000" stroke-miterlimit="10"><path d="M340.2 449.7H10.4c-5.5 0-10 4.5-10 10v55.8c0 5.5 4.5 10 10 10h329.8c5.5 0 10-4.5 10-10v-55.8c0-5.5-4.5-10-10-10zM539.7 300.7H10.4c-5.5 0-10 4.5-10 10v55.8c0 5.5 4.5 10 10 10h529.3c5.5 0 10-4.5 10-10v-55.8c0-5.5-4.5-10-10-10zM440 149.7H10.4c-5.5 0-10 4.5-10 10v55.8c0 5.5 4.5 10 10 10H440c5.5 0 10-4.5 10-10v-55.8c0-5.5-4.5-10-10-10zM590-1.3H10.4c-5.5 0-10 4.5-10 10v55.8c0 5.5 4.5 10 10 10H590c5.5 0 10-4.5 10-10V8.7c0-5.5-4.5-10-10-10z"/></g><defs><clipPath id="clip0"><path fill="#fff" transform="matrix(1 0 0 -1 0 526)" d="M0 0h600v526H0z"/></clipPath></defs></svg>